<?xml version="1.0" standalone="no"?>
<!DOCTYPE svg PUBLIC "-//W3C//DTD SVG 20010904//EN"
 "http://www.w3.org/TR/2001/REC-SVG-20010904/DTD/svg10.dtd">
<svg version="1.0" xmlns="http://www.w3.org/2000/svg"
 width="300.000000pt" height="187.000000pt" viewBox="0 0 300.000000 187.000000"
 preserveAspectRatio="xMidYMid meet">
<metadata>
Created by potrace 1.10, written by Peter Selinger 2001-2011
</metadata>
<g transform="translate(0.000000,187.000000) scale(0.100000,-0.100000)"
fill="#000000" stroke="none">
<path d="M2339 1842 c-54 -35 -100 -86 -140 -157 -30 -53 -30 -53 -89 -60
-120 -14 -232 7 -667 124 -427 116 -562 132 -766 91 -192 -39 -382 -156 -472
-292 -16 -23 -41 -56 -56 -73 -16 -16 -38 -52 -51 -80 -21 -45 -23 -64 -22
-185 1 -122 5 -149 37 -274 45 -169 47 -243 13 -377 -13 -52 -43 -137 -66
-189 -55 -126 -64 -153 -57 -182 11 -42 46 -77 89 -89 82 -21 146 26 215 157
15 30 30 54 33 54 3 0 28 -55 55 -121 28 -67 62 -134 76 -149 53 -58 151 -44
192 28 25 43 24 129 -3 212 -11 36 -23 95 -27 132 -10 113 20 154 200 278 93
64 159 134 183 195 l17 45 128 0 127 0 23 -37 c13 -21 70 -87 127 -147 57 -60
114 -128 128 -151 13 -23 54 -118 89 -211 129 -336 156 -371 268 -362 64 5
100 30 123 85 22 50 18 74 -39 231 -90 247 -159 530 -140 579 4 10 43 13 177
13 183 0 240 -10 296 -51 22 -17 46 -23 87 -25 32 -1 64 -2 71 -3 16 -1 67
-111 77 -165 11 -54 42 -86 92 -93 51 -7 114 25 144 74 41 66 34 200 -15 323
-20 50 -21 58 -9 89 8 18 21 59 29 90 11 46 25 68 69 113 77 80 126 186 110
237 -11 37 -120 57 -219 41 l-68 -11 -36 32 c-34 30 -125 79 -148 79 -5 0 -18
27 -28 60 -23 75 -70 150 -94 150 -10 0 -38 -13 -63 -28z m-1294 -77 c50 -8
225 -51 390 -96 406 -109 463 -121 621 -123 92 -1 136 -5 147 -14 9 -8 26 -12
38 -10 17 2 27 19 48 84 25 78 74 164 93 164 20 0 50 -94 56 -177 5 -66 11
-88 25 -97 26 -16 51 4 57 48 l5 36 40 -21 c22 -12 50 -30 61 -41 19 -17 20
-23 11 -48 -8 -22 -8 -32 2 -44 18 -21 39 -20 92 3 52 23 167 47 176 37 13
-13 -32 -80 -92 -140 -53 -53 -61 -66 -72 -120 -18 -85 -65 -176 -117 -224
-48 -45 -82 -58 -121 -48 -20 5 -25 13 -25 36 0 20 8 35 25 46 31 20 31 35 3
61 -50 46 -98 37 -98 -17 0 -46 -43 -73 -108 -68 -82 7 -128 63 -152 186 -11
54 -16 63 -38 69 -60 15 -59 -77 3 -219 6 -16 -1 -18 -80 -18 -58 0 -84 3 -80
11 4 5 4 21 1 35 -13 52 -104 17 -145 -57 -22 -38 -23 -50 -18 -143 5 -113 42
-268 108 -456 88 -251 85 -238 69 -267 -8 -15 -28 -31 -44 -36 -60 -20 -85 21
-206 342 -70 182 -98 227 -231 367 -107 113 -124 141 -174 294 -15 47 -32 91
-38 98 -13 17 -42 15 -58 -4 -10 -13 -9 -27 11 -87 12 -40 25 -78 27 -84 4
-10 -21 -13 -104 -13 l-110 0 -11 63 c-15 79 -40 144 -60 152 -8 3 -24 3 -34
-1 -23 -7 -21 -30 6 -124 22 -78 20 -136 -8 -195 -28 -60 -64 -94 -171 -166
-116 -77 -180 -144 -199 -209 -22 -74 -20 -134 8 -231 36 -128 38 -139 26
-174 -12 -35 -32 -49 -60 -40 -11 4 -46 74 -100 199 l-82 194 22 89 c31 124
24 232 -24 368 -20 58 -40 138 -46 190 -6 50 -15 94 -20 99 -5 5 -21 5 -36 2
l-27 -7 5 -92 c4 -73 14 -118 48 -217 40 -118 42 -130 38 -215 -3 -57 -13
-112 -26 -149 -19 -51 -20 -65 -10 -92 10 -29 8 -41 -16 -98 -59 -138 -114
-199 -161 -178 -33 15 -32 26 10 118 122 266 140 426 75 664 -37 137 -49 289
-30 369 8 33 26 69 49 96 20 23 55 68 78 98 154 203 439 294 758 242z m1699
-874 c25 -110 22 -157 -13 -192 -51 -50 -63 -41 -99 68 -18 53 -31 97 -30 97
13 5 95 73 101 83 16 26 26 12 41 -56z"/>
</g>
</svg>
