<?xml version="1.0" encoding="UTF-8" standalone="no"?>
<svg
   version="1.0"
   width="450.000000pt"
   height="452.000000pt"
   viewBox="0 0 450.000000 452.000000"
   preserveAspectRatio="xMidYMid meet"
   id="svg7"
   sodipodi:docname="ZrxjI301.svg"
   inkscape:version="1.4 (86a8ad7, 2024-10-11)"
   xmlns:inkscape="http://www.inkscape.org/namespaces/inkscape"
   xmlns:sodipodi="http://sodipodi.sourceforge.net/DTD/sodipodi-0.dtd"
   xmlns="http://www.w3.org/2000/svg"
   xmlns:svg="http://www.w3.org/2000/svg">
  <defs
     id="defs7" />
  <sodipodi:namedview
     id="namedview7"
     pagecolor="#ffffff"
     bordercolor="#000000"
     borderopacity="0.25"
     inkscape:showpageshadow="2"
     inkscape:pageopacity="0.0"
     inkscape:pagecheckerboard="0"
     inkscape:deskcolor="#d1d1d1"
     inkscape:document-units="pt"
     inkscape:zoom="1.352323"
     inkscape:cx="184.86708"
     inkscape:cy="464.75583"
     inkscape:window-width="1920"
     inkscape:window-height="1017"
     inkscape:window-x="-8"
     inkscape:window-y="-8"
     inkscape:window-maximized="1"
     inkscape:current-layer="g7" />
  <metadata
     id="metadata1">
Created by potrace 1.10, written by Peter Selinger 2001-2011
</metadata>
  <g
     transform="translate(0.000000,452.000000) scale(0.100000,-0.100000)"
     fill="#000000"
     stroke="none"
     id="g7">
    <path
       d="m 941,0 24,27 c 30,35 31,40 3,49 -21,6 -21,7 -2,21 14,10 16,16 6,21 -9,7 -9,12 3,28 9,12 14,43 15,84 0,60 4,70 51,148 42,67 49,85 39,97 -7,8 -9,15 -4,15 5,1 19,9 31,19 21,18 22,19 6,82 -8,35 -19,107 -23,159 -5,52 -18,129 -30,170 -26,93 -50,251 -50,328 0,168 60,292 141,292 60,0 202,-89 473,-297 109,-84 110,-84 129,-64 19,19 21,19 61,2 26,-11 57,-16 83,-13 23,2 62,-3 87,-11 30,-10 47,-12 54,-5 7,7 22,6 46,-2 30,-9 45,-9 85,5 44,14 53,15 86,1 37,-16 181,-17 217,-1 9,3 32,4 52,1 19,-3 38,-1 41,4 4,6 23,10 43,8 20,-1 75,9 121,21 57,15 86,19 91,12 4,-7 15,1 28,19 14,19 32,30 47,30 29,0 60,25 195,156 155,151 215,194 269,194 42,0 106,-75 130,-154 46,-149 38,-310 -24,-501 -33,-102 -35,-113 -24,-158 8,-34 8,-51 0,-61 -6,-7 -7,-16 -3,-20 4,-4 7,-58 7,-119 0,-109 1,-114 34,-172 19,-33 43,-70 54,-82 11,-12 21,-37 22,-55 5,-63 25,-117 45,-123 21,-7 24,-18 10,-50 -5,-14 -2,-26 13,-42 18,-20 18,-23 3,-29 -9,-3 -15.3799,-29.1006296 -19.9216,-35.6864916"
       id="path1"
       sodipodi:nodetypes="cccccsccccccccsscccccsccccccccccscsccccsscscccccc"
       style="fill:#000000;fill-opacity:0;stroke:#000000;stroke-width:60;stroke-dasharray:none;stroke-opacity:1" />
    <path
       d="M2765 429 c100 -34 145 -88 145 -176 0 -91 -62 -154 -157 -161 -138 -9 -223 103 -178 233 4 13 1 12 -9 -5 -21 -34 -19 -106 3 -156 34 -74 105 -111 198 -101 106 11 163 76 163 187 0 106 -52 168 -155 183 -37 6 -37 5 -10 -4z"
       id="path2"
       style="stroke-width:20.00000003;stroke-dasharray:none;stroke:#000000;stroke-opacity:1" />
    <path
       d="M1644 401 c-75 -45 -104 -121 -80 -206 25 -85 98 -135 197 -135 48 0 129 43 157 83 27 40 30 122 7 167 -21 41 -25 37 -9 -7 18 -51 17 -71 -5 -120 -25 -55 -79 -83 -156 -83 -64 0 -102 16 -138 60 -66 78 -38 197 55 243 18 9 26 17 18 17 -8 0 -29 -9 -46 -19z"
       id="path3"
       style="stroke-width:20.00000003;stroke-dasharray:none;stroke:#000000;stroke-opacity:1" />
    <path
       d="M2711 356 c-16 -19 -6 -36 20 -36 15 0 20 6 17 22 -4 27 -21 33 -37 14z"
       id="path4"
       style="stroke-width:20.00000003;stroke-dasharray:none;stroke:#000000;stroke-opacity:1" />
    <path
       d="M1753 349 c-15 -15 -5 -39 17 -39 22 0 32 24 17 39 -6 6 -14 11 -17 11 -3 0 -11 -5 -17 -11z"
       id="path5"
       style="stroke-width:20.00000003;stroke-dasharray:none;stroke:#000000;stroke-opacity:1" />
    <path
       d="M2790 310 c0 -5 5 -10 10 -10 6 0 10 5 10 10 0 6 -4 10 -10 10 -5 0 -10 -4 -10 -10z"
       id="path6"
       style="stroke-width:20.00000003;stroke-dasharray:none;stroke:#000000;stroke-opacity:1" />
    <path
       d="M1830 300 c0 -5 5 -10 10 -10 6 0 10 5 10 10 0 6 -4 10 -10 10 -5 0 -10 -4 -10 -10z"
       id="path7"
       style="stroke-width:20.00000003;stroke-dasharray:none;stroke:#000000;stroke-opacity:1" />
  </g>
</svg>
