<?xml version="1.0" standalone="no"?>
<!DOCTYPE svg PUBLIC "-//W3C//DTD SVG 20010904//EN"
 "http://www.w3.org/TR/2001/REC-SVG-20010904/DTD/svg10.dtd">
<svg version="1.0" xmlns="http://www.w3.org/2000/svg"
 width="300.000000pt" height="425.000000pt" viewBox="0 0 300.000000 425.000000"
 preserveAspectRatio="xMidYMid meet">
<metadata>
Created by potrace 1.10, written by Peter Selinger 2001-2011
</metadata>
<g transform="translate(0.000000,425.000000) scale(0.100000,-0.100000)"
fill="#000000" stroke="none">
<path d="M2630 3560 c-46 -24 -92 -73 -193 -205 l-84 -110 -104 3 c-129 4
-300 -12 -397 -38 l-72 -20 -72 55 c-124 94 -250 151 -358 162 -44 4 -59 2
-69 -11 -10 -11 -31 -16 -75 -16 -34 0 -93 -9 -131 -20 -115 -32 -355 -142
-443 -203 l-81 -57 -113 162 c-130 185 -165 219 -236 226 -58 5 -86 -8 -108
-50 -32 -61 -16 -112 82 -276 49 -81 104 -169 123 -196 l34 -50 -18 -45 c-64
-162 -87 -338 -87 -656 0 -193 4 -245 21 -322 25 -113 107 -281 180 -365 53
-62 90 -153 111 -276 16 -90 49 -169 81 -197 34 -28 126 -49 172 -40 17 4 50
17 72 28 51 25 162 138 171 173 6 24 9 21 43 -42 43 -82 119 -183 163 -217 28
-23 34 -37 60 -153 34 -153 57 -203 118 -265 84 -84 204 -106 299 -53 69 37
95 88 95 184 0 51 -7 81 -32 139 -24 55 -32 88 -32 131 0 33 5 62 10 65 6 3
10 3 10 -2 0 -35 22 -130 35 -149 18 -28 137 -124 185 -150 26 -14 57 -18 127
-19 87 0 93 1 130 31 22 18 44 47 51 70 17 50 9 125 -18 169 l-20 33 45 22
c63 31 139 125 196 245 26 55 76 151 112 213 36 62 79 149 97 195 17 45 41
102 52 127 27 57 34 168 19 292 -11 93 -10 95 18 163 23 54 39 75 75 102 84
61 100 119 39 137 -32 9 -33 10 -25 50 17 94 8 137 -51 262 -69 147 -80 201
-67 314 23 196 9 335 -42 410 -37 54 -57 62 -98 40z m79 -79 c39 -77 43 -125
30 -316 -14 -211 -9 -236 69 -389 45 -87 47 -95 47 -173 0 -45 -4 -86 -10 -92
-7 -6 -43 -7 -105 -1 -52 5 -206 10 -342 10 l-248 0 -15 -24 c-24 -37 -68 -51
-113 -38 -21 6 -55 9 -75 5 -30 -5 -45 -1 -69 17 -30 22 -33 22 -132 10 -55
-7 -175 -16 -266 -20 -91 -3 -173 -10 -182 -14 -15 -7 -18 -3 -18 26 0 68 22
153 59 227 l38 75 -34 74 c-52 112 -66 194 -59 342 8 176 6 173 75 168 96 -8
230 -73 353 -171 l61 -49 66 21 c102 31 230 44 386 39 l140 -6 80 106 c103
135 152 191 189 213 35 21 48 14 75 -40z m-2442 -58 c18 -13 80 -92 138 -176
58 -84 114 -163 124 -177 l19 -25 28 26 c82 75 348 210 501 255 47 14 169 22
179 12 2 -3 0 -39 -6 -80 -18 -142 11 -323 70 -437 l18 -36 -35 -69 c-58 -115
-79 -311 -47 -434 27 -103 128 -251 154 -225 9 8 2 23 -30 64 -42 53 -80 119
-80 139 0 5 15 10 33 10 17 0 49 5 70 11 30 8 53 7 100 -5 58 -14 68 -14 148
4 47 10 102 25 121 33 31 13 41 13 104 -7 l69 -22 7 -62 c4 -34 10 -66 13 -72
8 -13 180 -13 303 1 144 15 375 76 465 121 22 11 40 18 42 16 10 -10 -38 -90
-83 -139 -29 -31 -52 -62 -52 -68 0 -21 24 -11 61 25 l36 36 6 -34 c4 -18 9
-71 13 -118 7 -91 8 -85 -65 -281 -17 -47 -61 -137 -96 -200 -36 -63 -92 -168
-124 -234 -70 -143 -142 -226 -213 -246 -69 -18 -209 -4 -339 35 l-112 35 -70
-62 -69 -62 -122 1 c-66 0 -133 4 -148 8 -41 12 -37 -18 5 -35 40 -17 228 -18
274 -2 l33 12 0 -35 c0 -19 16 -73 35 -120 59 -142 44 -240 -44 -288 -56 -30
-98 -33 -166 -9 -59 20 -129 86 -156 148 -10 23 -28 87 -39 141 -32 155 -37
167 -69 186 -38 21 -112 116 -156 199 -25 47 -40 96 -55 179 -11 62 -20 117
-20 122 0 4 -27 8 -60 8 -86 0 -154 29 -241 105 -79 68 -106 107 -134 195 -19
61 -29 75 -43 66 -13 -8 9 -92 43 -161 17 -37 49 -73 103 -120 91 -80 156
-113 240 -121 l61 -7 11 -68 c10 -58 9 -76 -4 -117 -21 -62 -98 -149 -166
-186 -45 -24 -60 -28 -111 -24 -102 7 -130 45 -170 232 -29 134 -57 203 -110
263 -60 69 -144 228 -170 323 -39 140 -36 612 5 807 8 38 29 108 47 157 l31
87 -30 42 c-66 93 -220 358 -226 390 -18 96 65 134 151 70z m2527 -954 c139
-17 140 -18 84 -71 -76 -72 -273 -148 -506 -197 -68 -14 -346 -35 -366 -28
-10 4 -16 29 -20 84 -4 43 -9 99 -12 125 l-6 48 60 -6 c52 -6 66 -3 96 15 20
13 36 27 36 31 0 21 470 20 634 -1z m-919 -29 c22 -11 45 -20 52 -20 9 0 13
-16 13 -48 l0 -49 -52 18 c-65 23 -86 23 -132 4 -67 -28 -192 -47 -234 -35
-48 13 -102 13 -158 -1 -39 -10 -47 -9 -64 6 -23 21 -26 63 -6 90 16 22 97 33
256 35 52 1 115 5 140 9 83 15 144 12 185 -9z m125 -1435 c30 -8 85 -15 122
-15 107 0 148 -41 148 -148 0 -90 -65 -139 -169 -126 -76 9 -124 32 -203 98
-74 62 -88 90 -88 187 l0 56 68 -19 c37 -10 92 -25 122 -33z"/>
<path d="M2231 2964 c-75 -67 -78 -146 -9 -219 41 -42 41 -43 74 -29 18 8 63
14 99 14 49 0 65 3 65 14 0 7 7 27 15 42 36 70 4 152 -75 192 -68 34 -121 30
-169 -14z m162 -20 c40 -21 69 -72 61 -109 -9 -46 -30 -62 -87 -69 -29 -4 -62
-10 -74 -13 -37 -9 -83 45 -83 97 0 36 6 48 40 82 37 37 43 40 77 33 21 -4 50
-13 66 -21z"/>
<path d="M1609 2887 c-40 -26 -79 -98 -79 -145 0 -47 36 -114 58 -108 47 14
111 26 147 26 40 0 41 1 63 58 22 57 21 86 -3 145 -20 49 -128 63 -186 24z
m125 -18 c42 -19 58 -91 32 -139 -12 -21 -28 -28 -96 -41 -77 -15 -81 -15 -90
2 -15 27 -12 86 5 120 18 34 69 69 102 69 12 0 33 -5 47 -11z"/>
<path d="M1959 2714 c-74 -22 -92 -64 -28 -64 16 0 29 -4 29 -9 0 -5 7 -12 16
-15 10 -4 21 4 32 24 12 22 24 30 45 30 35 0 36 27 1 40 -32 12 -38 12 -95 -6z"/>
<path d="M1830 2406 c0 -28 28 -42 47 -23 19 19 5 47 -23 47 -19 0 -24 -5 -24
-24z"/>
<path d="M1574 2406 c-10 -26 4 -48 28 -44 17 2 23 10 23 28 0 18 -6 26 -23
28 -13 2 -25 -3 -28 -12z"/>
<path d="M1324 2396 c-10 -26 4 -48 28 -44 17 2 23 10 23 28 0 18 -6 26 -23
28 -13 2 -25 -3 -28 -12z"/>
</g>
</svg>
